<?xml version="1.0" encoding="UTF-8" standalone="no"?>
<!-- Created with Inkscape (http://www.inkscape.org/) -->

<svg
   width="103.63229mm"
   height="106.36249mm"
   viewBox="0 0 103.63229 106.36249"
   version="1.1"
   id="svg5"
   xml:space="preserve"
   xmlns:inkscape="http://www.inkscape.org/namespaces/inkscape"
   xmlns:sodipodi="http://sodipodi.sourceforge.net/DTD/sodipodi-0.dtd"
   xmlns="http://www.w3.org/2000/svg"
   xmlns:svg="http://www.w3.org/2000/svg"><sodipodi:namedview
     id="namedview7"
     pagecolor="#ffffff"
     bordercolor="#666666"
     borderopacity="1.0"
     inkscape:showpageshadow="2"
     inkscape:pageopacity="0.0"
     inkscape:pagecheckerboard="0"
     inkscape:deskcolor="#d1d1d1"
     inkscape:document-units="mm"
     showgrid="false" /><defs
     id="defs2" /><g
     inkscape:label="Vrstva 1"
     inkscape:groupmode="layer"
     id="layer1"
     transform="translate(-63.84601,-66.129561)"><g
       data-name="1"
       id="_1"
       transform="matrix(0.26458333,0,0,0.26458333,49.108717,53.429562)"><g
         id="g193"
         inkscape:export-filename="g193.png"
         inkscape:export-xdpi="96"
         inkscape:export-ydpi="96"><path
           d="M 397.78,316 H 192.65 A 15,15 0 0 1 178,304.33 L 143.46,153.85 a 15,15 0 0 1 14.62,-18.36 H 432.35 A 15,15 0 0 1 447,153.85 L 412.4,304.33 A 15,15 0 0 1 397.78,316 Z M 204.59,286 h 181.25 l 27.67,-120.48 h -236.6 z"
           id="path11"
           style="fill:#ffffff" /><path
           d="M 222,450 A 57.48,57.48 0 1 1 279.48,392.52 57.54,57.54 0 0 1 222,450 Z m 0,-84.95 A 27.48,27.48 0 1 0 249.48,392.52 27.5,27.5 0 0 0 222,365.05 Z"
           id="path13"
           style="fill:#ffffff" /><path
           d="M 368.42,450 A 57.48,57.48 0 1 1 425.9,392.52 57.54,57.54 0 0 1 368.42,450 Z m 0,-84.95 a 27.48,27.48 0 1 0 27.48,27.47 27.5,27.5 0 0 0 -27.48,-27.47 z"
           id="path15"
           style="fill:#ffffff" /><path
           d="M 158.08,165.49 A 15,15 0 0 1 143.85,155.23 L 118.14,78 H 70.7 a 15,15 0 1 1 0,-30 H 129 a 15,15 0 0 1 14.23,10.26 l 29.13,87.49 a 15,15 0 0 1 -14.23,19.74 z"
           id="path17"
           style="fill:#ffffff" /></g></g></g></svg>
