<?xml version="1.0" encoding="UTF-8" standalone="no"?>
<!-- Created with Inkscape (http://www.inkscape.org/) -->

<svg
   width="3.1750031mm"
   height="3.1750031mm"
   viewBox="0 0 3.1750031 3.1750031"
   version="1.1"
   id="svg5"
   xml:space="preserve"
   xmlns:inkscape="http://www.inkscape.org/namespaces/inkscape"
   xmlns:sodipodi="http://sodipodi.sourceforge.net/DTD/sodipodi-0.dtd"
   xmlns="http://www.w3.org/2000/svg"
   xmlns:svg="http://www.w3.org/2000/svg"><sodipodi:namedview
     id="namedview7"
     pagecolor="#ffffff"
     bordercolor="#666666"
     borderopacity="1.0"
     inkscape:showpageshadow="2"
     inkscape:pageopacity="0.0"
     inkscape:pagecheckerboard="0"
     inkscape:deskcolor="#d1d1d1"
     inkscape:document-units="mm"
     showgrid="false"
     inkscape:zoom="0.84096521"
     inkscape:cx="99.885226"
     inkscape:cy="310.35767"
     inkscape:window-width="1858"
     inkscape:window-height="1057"
     inkscape:window-x="1016"
     inkscape:window-y="-8"
     inkscape:window-maximized="1"
     inkscape:current-layer="layer1" /><defs
     id="defs2" /><g
     inkscape:label="Layer 1"
     inkscape:groupmode="layer"
     id="layer1"
     transform="translate(-131.81081,-140.93475)"><rect
       style="fill:none;stroke:#000000;stroke-width:1.304"
       id="rect327"
       width="160.6226"
       height="179.75493"
       x="20.912083"
       y="38.26466" /><g
       id="g764"
       transform="matrix(0.26458333,0,0,0.26458333,131.28164,140.40558)"
       style="fill:#ffffff"><g
         id="Guide-3"
         style="fill:#ffffff" /><g
         id="Layer_2-2"
         style="fill:#ffffff"><path
           d="M 13.85,13.15 11.16,10.46 C 11.9,9.56 12.36,8.43 12.36,7.18 12.37,4.33 10.04,2 7.18,2 4.32,2 2,4.33 2,7.18 c 0,2.85 2.33,5.18 5.18,5.18 1.25,0 2.38,-0.46 3.28,-1.2 l 2.69,2.69 c 0.1,0.1 0.23,0.15 0.35,0.15 0.12,0 0.26,-0.05 0.35,-0.15 0.2,-0.19 0.2,-0.51 0,-0.7 z M 3,7.18 C 3,4.88 4.88,3 7.18,3 c 2.3,0 4.18,1.88 4.18,4.18 0,2.3 -1.88,4.18 -4.18,4.18 C 4.88,11.36 3,9.49 3,7.18 Z"
           id="path752"
           style="fill:#ffffff" /></g></g></g></svg>
