<?xml version="1.0" encoding="UTF-8" standalone="no"?>
<!-- Created with Inkscape (http://www.inkscape.org/) -->

<svg
   width="101.60001mm"
   height="91.545837mm"
   viewBox="0 0 101.60001 91.545837"
   version="1.1"
   id="svg5"
   xml:space="preserve"
   xmlns:inkscape="http://www.inkscape.org/namespaces/inkscape"
   xmlns:sodipodi="http://sodipodi.sourceforge.net/DTD/sodipodi-0.dtd"
   xmlns="http://www.w3.org/2000/svg"
   xmlns:svg="http://www.w3.org/2000/svg"><sodipodi:namedview
     id="namedview7"
     pagecolor="#ffffff"
     bordercolor="#666666"
     borderopacity="1.0"
     inkscape:showpageshadow="2"
     inkscape:pageopacity="0.0"
     inkscape:pagecheckerboard="0"
     inkscape:deskcolor="#d1d1d1"
     inkscape:document-units="mm"
     showgrid="false" /><defs
     id="defs2" /><g
     inkscape:label="Vrstva 1"
     inkscape:groupmode="layer"
     id="layer1"
     transform="translate(-40.051351,-175.3352)"><g
       data-name="1"
       id="_1"
       transform="matrix(0.26458333,0,0,0.26458333,49.108717,53.429562)"><g
         id="g193"
         inkscape:export-filename="g193.svg"
         inkscape:export-xdpi="96"
         inkscape:export-ydpi="96"><path
           d="M 397.78,316 H 192.65 A 15,15 0 0 1 178,304.33 L 143.46,153.85 a 15,15 0 0 1 14.62,-18.36 H 432.35 A 15,15 0 0 1 447,153.85 L 412.4,304.33 A 15,15 0 0 1 397.78,316 Z M 204.59,286 h 181.25 l 27.67,-120.48 h -236.6 z"
           id="path11"
           style="fill:#ffffff" /><path
           d="M 222,450 A 57.48,57.48 0 1 1 279.48,392.52 57.54,57.54 0 0 1 222,450 Z m 0,-84.95 A 27.48,27.48 0 1 0 249.48,392.52 27.5,27.5 0 0 0 222,365.05 Z"
           id="path13"
           style="fill:#ffffff" /><path
           d="M 368.42,450 A 57.48,57.48 0 1 1 425.9,392.52 57.54,57.54 0 0 1 368.42,450 Z m 0,-84.95 a 27.48,27.48 0 1 0 27.48,27.47 27.5,27.5 0 0 0 -27.48,-27.47 z"
           id="path15"
           style="fill:#ffffff" /><path
           d="M 158.08,165.49 A 15,15 0 0 1 143.85,155.23 L 118.14,78 H 70.7 a 15,15 0 1 1 0,-30 H 129 a 15,15 0 0 1 14.23,10.26 l 29.13,87.49 a 15,15 0 0 1 -14.23,19.74 z"
           id="path17"
           style="fill:#ffffff" /></g><path
         d="m 242.56744,476.1457 c 50.7,0 91.9,41.29999 91.9,92.3 0,26.2 -10.9,49.8 -28.3,66.6 l -148.4,149.8 -151.0000014,-152.5 c -15.8,-16.6 -25.5999996,-39.1 -25.5999996,-63.9 0,-51.00001 41.1,-92.3 91.900001,-92.3 38.2,0 70.9,23.39999 84.8,56.79999 13.7,-33.3 46.5,-56.79999 84.7,-56.79999 m 0,-15.4 c -33.8,0 -64.8,15.8 -84.8,41.79999 -20,-25.99999 -51,-41.79999 -84.8,-41.79999 -59.100001,0 -107.200001,48.29999 -107.200001,107.7 0,27.9 10.6,54.4 29.8999996,74.6 l 151.2000014,152.7 10.9,11 10.9,-11 148.3,-149.8 c 21,-20.3 32.8,-47.9 32.8,-77.5 0,-59.40001 -48.1,-107.7 -107.2,-107.7 z"
         id="path231"
         style="fill:#ffffff" /></g></g></svg>
