<?xml version="1.0" encoding="UTF-8" standalone="no"?>
<!-- Created with Inkscape (http://www.inkscape.org/) -->

<svg
   width="6.3499985mm"
   height="7.4083405mm"
   viewBox="0 0 6.3499985 7.4083405"
   version="1.1"
   id="svg5"
   xml:space="preserve"
   xmlns:inkscape="http://www.inkscape.org/namespaces/inkscape"
   xmlns:sodipodi="http://sodipodi.sourceforge.net/DTD/sodipodi-0.dtd"
   xmlns="http://www.w3.org/2000/svg"
   xmlns:svg="http://www.w3.org/2000/svg"><sodipodi:namedview
     id="namedview7"
     pagecolor="#ffffff"
     bordercolor="#666666"
     borderopacity="1.0"
     inkscape:showpageshadow="2"
     inkscape:pageopacity="0.0"
     inkscape:pagecheckerboard="0"
     inkscape:deskcolor="#d1d1d1"
     inkscape:document-units="mm"
     showgrid="false"
     inkscape:zoom="0.84096521"
     inkscape:cx="99.885226"
     inkscape:cy="310.35767"
     inkscape:window-width="1858"
     inkscape:window-height="1057"
     inkscape:window-x="1016"
     inkscape:window-y="-8"
     inkscape:window-maximized="1"
     inkscape:current-layer="layer1" /><defs
     id="defs2" /><g
     inkscape:label="Layer 1"
     inkscape:groupmode="layer"
     id="layer1"
     transform="translate(-87.120554,-159.89753)"><rect
       style="fill:none;stroke:#000000;stroke-width:1.304"
       id="rect327"
       width="160.6226"
       height="179.75493"
       x="20.912083"
       y="38.26466" /><g
       id="about-0"
       transform="matrix(0.26458333,0,0,0.26458333,86.062218,159.36836)"
       style="fill:#ffffff"><path
         d="M 16,16 A 7,7 0 1 0 9,9 7,7 0 0 0 16,16 Z M 16,4 a 5,5 0 1 1 -5,5 5,5 0 0 1 5,-5 z"
         id="path845"
         style="fill:#ffffff" /><path
         d="M 17,18 H 15 A 11,11 0 0 0 4,29 1,1 0 0 0 5,30 H 27 A 1,1 0 0 0 28,29 11,11 0 0 0 17,18 Z M 6.06,28 A 9,9 0 0 1 15,20 h 2 a 9,9 0 0 1 8.94,8 z"
         id="path847"
         style="fill:#ffffff" /></g></g></svg>
